<svg width="212" height="212" viewBox="0 0 212 212" fill="none" xmlns="http://www.w3.org/2000/svg">
<path d="M106.251 0.5C164.653 0.5 212 47.846 212 106.25C212 164.654 164.653 212 106.25 212C47.846 212 0.5 164.654 0.5 106.25C0.5 47.846 47.846 0.5 106.251 0.5Z" fill="#009688"/>
<path d="M118.896 107.128C128.746 107.128 136.278 99.5196 136.278 89.5682C136.278 79.6169 128.742 72 118.896 72C109.05 72 101.523 79.6128 101.523 89.5682C101.523 99.5237 109.046 107.128 118.896 107.128ZM150.176 128.694C149.1 127.055 147.879 125.519 146.529 124.103C144.324 121.798 141.803 119.825 139.042 118.245C138.14 117.728 137.216 117.249 136.273 116.81L136.187 116.773C131.646 114.691 125.931 113.244 118.826 113.244C111.721 113.244 106.011 114.691 101.465 116.773L101.006 116.997C100.02 117.471 99.0552 117.989 98.1137 118.547C95.5471 120.077 93.1947 121.947 91.1192 124.108C90.156 125.117 89.2571 126.188 88.4281 127.313C88.0987 127.767 87.78 128.228 87.4723 128.698C87.2138 129.092 86.9964 129.461 86.7995 129.788L86.7502 129.871C86.4306 130.42 86.1389 130.984 85.8764 131.563V141H151.764V131.563C151.764 131.563 151.477 130.883 150.841 129.792C150.633 129.418 150.411 129.051 150.176 128.694ZM94.68 99.2832H81.7618V86.2138H73.8977V99.2832H61V107.236H73.8977V120.276H81.7618V107.236H94.68V99.2832Z" fill="white"/>
</svg>
