<svg width="212" height="212" viewBox="0 0 212 212" fill="none" xmlns="http://www.w3.org/2000/svg">
<path d="M106.251 0.5C164.653 0.5 212 47.846 212 106.25C212 164.654 164.653 212 106.25 212C47.846 212 0.5 164.654 0.5 106.25C0.5 47.846 47.846 0.5 106.251 0.5Z" fill="#009688"/>
<path d="M104.896 107.128C114.746 107.128 122.278 99.5196 122.278 89.5682C122.278 79.6169 114.742 72 104.896 72C95.0504 72 87.5227 79.6128 87.5227 89.5682C87.5227 99.5237 95.0463 107.128 104.896 107.128V107.128ZM143.249 104.474C149.693 104.474 154.624 99.4947 154.624 92.9807C154.624 86.4667 149.693 81.4828 143.249 81.4828C136.804 81.4828 131.877 86.4667 131.877 92.9807C131.877 99.4947 136.804 104.474 143.249 104.474ZM136.176 128.694C135.1 127.055 133.879 125.519 132.529 124.103C130.324 121.798 127.803 119.825 125.042 118.245C124.14 117.728 123.216 117.249 122.273 116.81L122.187 116.773C117.646 114.691 111.931 113.244 104.826 113.244C97.721 113.244 92.0106 114.691 87.4653 116.773L87.0058 116.997C86.0201 117.471 85.0552 117.989 84.1137 118.547C81.5471 120.077 79.1947 121.947 77.1192 124.108C76.156 125.117 75.2571 126.188 74.4281 127.313C74.0987 127.767 73.78 128.228 73.4723 128.698C73.2138 129.092 72.9964 129.461 72.7995 129.788L72.7502 129.871C72.4306 130.42 72.1389 130.984 71.8764 131.563V141H137.764V131.563C137.764 131.563 137.477 130.883 136.841 129.792C136.633 129.418 136.411 129.051 136.176 128.694V128.694ZM143.249 110.628C137.78 110.628 133.501 111.872 130.207 113.584C132.758 114.992 135.142 116.686 137.317 118.634C143.068 123.817 145.353 129.013 145.591 129.585L145.677 129.788H166V123.274C166 123.274 160.692 110.628 143.249 110.628V110.628ZM80.68 99.2832H67.7618V86.2138H59.8977V99.2832H47V107.236H59.8977V120.276H67.7618V107.236H80.68V99.2832Z" fill="white"/>
</svg>
